<svg width="25" height="24" viewBox="0 0 25 24" fill="none" xmlns="http://www.w3.org/2000/svg">
<g clip-path="url(#clip0_10_677)">
<g clip-path="url(#clip1_10_677)">
<mask id="mask0_10_677" style="mask-type:luminance" maskUnits="userSpaceOnUse" x="0" y="0" width="25" height="24">
<path d="M24.73 0.822205H0.72998V23.8622H24.73V0.822205Z" fill="white"/>
</mask>
<g mask="url(#mask0_10_677)">
<path d="M23.0068 6.15006C19.5603 0.822028 12.5237 -0.761984 7.0668 2.55005C1.75344 5.86206 0.0301816 13.0622 3.47668 18.3902L3.7639 18.8222L2.61505 23.1422L6.92319 21.9902L7.354 22.2782C9.22085 23.2862 11.2313 23.8622 13.2418 23.8622C15.3959 23.8622 17.5499 23.2862 19.4167 22.1342C24.7301 18.6782 26.3097 11.6221 23.0068 6.15006ZM19.9912 17.2382C19.4167 18.1022 18.6987 18.6782 17.6935 18.8222C17.1191 18.8222 16.4011 19.1102 13.5289 17.9582C11.0877 16.8062 9.07725 14.9342 7.64121 12.7742C6.77958 11.7661 6.34877 10.4701 6.20517 9.17409C6.20517 8.02208 6.63598 7.01407 7.354 6.29407C7.64121 6.00606 7.92841 5.86206 8.21563 5.86206H8.93365C9.22085 5.86206 9.50807 5.86206 9.65167 6.43807C9.93888 7.15807 10.6569 8.88609 10.6569 9.03009C10.8005 9.17409 10.8005 9.46209 10.6569 9.60606C10.8005 9.89406 10.6569 10.1821 10.5133 10.3261C10.3697 10.4701 10.2261 10.7581 10.0825 10.9021C9.79527 11.0461 9.65167 11.3341 9.79527 11.6221C10.3697 12.4862 11.0877 13.3502 11.8057 14.0702C12.6673 14.7902 13.5289 15.3662 14.5342 15.7982C14.8214 15.9422 15.1086 15.9422 15.2522 15.6542C15.3959 15.3662 16.1138 14.6462 16.4011 14.3582C16.6883 14.0702 16.8319 14.0702 17.1191 14.2142L19.4167 15.3662C19.704 15.5102 19.9912 15.6542 20.1348 15.7982C20.2784 16.2302 20.2784 16.8062 19.9912 17.2382Z" fill="white"/>
</g>
</g>
</g>
<defs>
<clipPath id="clip0_10_677">
<rect width="24" height="24" fill="white" transform="translate(0.72998)"/>
</clipPath>
<clipPath id="clip1_10_677">
<rect width="24" height="24" fill="white" transform="translate(0.72998)"/>
</clipPath>
</defs>
</svg>
