<svg width="16" height="17" viewBox="0 0 16 17" fill="none" xmlns="http://www.w3.org/2000/svg">
<g clip-path="url(#clip0_14_136)">
<g clip-path="url(#clip1_14_136)">
<g clip-path="url(#clip2_14_136)">
<path d="M8 8.85001C9.06087 8.85001 10.0783 8.42858 10.8284 7.67844C11.5786 6.92829 12 5.91088 12 4.85001C12 3.78914 11.5786 2.77173 10.8284 2.02158C10.0783 1.27143 9.06087 0.850006 8 0.850006C6.93913 0.850006 5.92172 1.27143 5.17157 2.02158C4.42143 2.77173 4 3.78914 4 4.85001C4 5.91088 4.42143 6.92829 5.17157 7.67844C5.92172 8.42858 6.93913 8.85001 8 8.85001ZM10.6667 4.85001C10.6667 5.55725 10.3857 6.23553 9.88562 6.73563C9.38552 7.23573 8.70724 7.51668 8 7.51668C7.29276 7.51668 6.61448 7.23573 6.11438 6.73563C5.61428 6.23553 5.33333 5.55725 5.33333 4.85001C5.33333 4.14277 5.61428 3.46449 6.11438 2.96439C6.61448 2.46429 7.29276 2.18334 8 2.18334C8.70724 2.18334 9.38552 2.46429 9.88562 2.96439C10.3857 3.46449 10.6667 4.14277 10.6667 4.85001ZM16 15.5167C16 16.85 14.6667 16.85 14.6667 16.85H1.33333C1.33333 16.85 0 16.85 0 15.5167C0 14.1833 1.33333 10.1833 8 10.1833C14.6667 10.1833 16 14.1833 16 15.5167ZM14.6667 15.5113C14.6653 15.1833 14.4613 14.1967 13.5573 13.2927C12.688 12.4233 11.052 11.5167 8 11.5167C4.94667 11.5167 3.312 12.4233 2.44267 13.2927C1.53867 14.1967 1.336 15.1833 1.33333 15.5113H14.6667Z" fill="white"/>
</g>
</g>
</g>
<defs>
<clipPath id="clip0_14_136">
<rect width="16" height="16" fill="white" transform="translate(0 0.850006)"/>
</clipPath>
<clipPath id="clip1_14_136">
<rect width="16" height="16" fill="white" transform="translate(0 0.850006)"/>
</clipPath>
<clipPath id="clip2_14_136">
<rect width="16" height="16" fill="white" transform="translate(0 0.850006)"/>
</clipPath>
</defs>
</svg>
