<svg width="24" height="24" viewBox="0 0 24 24" fill="none" xmlns="http://www.w3.org/2000/svg">
<g clip-path="url(#clip0_71_558)">
<g clip-path="url(#clip1_71_558)">
<mask id="mask0_71_558" style="mask-type:luminance" maskUnits="userSpaceOnUse" x="0" y="0" width="24" height="24">
<path d="M24 0.822266H0V23.8623H24V0.822266Z" fill="white"/>
</mask>
<g mask="url(#mask0_71_558)">
<path d="M22.2769 6.15013C18.8304 0.822089 11.7938 -0.761923 6.33681 2.55011C1.02346 5.86213 -0.699799 13.0622 2.7467 18.3902L3.03392 18.8222L1.88507 23.1422L6.19321 21.9902L6.62402 22.2782C8.49087 23.2862 10.5013 23.8622 12.5118 23.8622C14.6659 23.8622 16.8199 23.2862 18.6867 22.1342C24.0002 18.6782 25.5797 11.6221 22.2769 6.15013ZM19.2612 17.2382C18.6867 18.1022 17.9688 18.6782 16.9635 18.8222C16.3891 18.8222 15.6711 19.1102 12.799 17.9582C10.3577 16.8062 8.34727 14.9342 6.91123 12.7742C6.0496 11.7661 5.61879 10.4701 5.47519 9.17415C5.47519 8.02214 5.906 7.01414 6.62402 6.29414C6.91123 6.00613 7.19843 5.86213 7.48565 5.86213H8.20367C8.49087 5.86213 8.77809 5.86213 8.92169 6.43813C9.2089 7.15813 9.92694 8.88615 9.92694 9.03015C10.0706 9.17415 10.0706 9.46215 9.92694 9.60613C10.0706 9.89413 9.92694 10.1821 9.78332 10.3261C9.6397 10.4701 9.49611 10.7581 9.3525 10.9021C9.06529 11.0461 8.92169 11.3341 9.06529 11.6221C9.6397 12.4862 10.3577 13.3502 11.0758 14.0702C11.9374 14.7902 12.799 15.3662 13.8042 15.7982C14.0914 15.9422 14.3786 15.9422 14.5223 15.6542C14.6659 15.3662 15.3839 14.6462 15.6711 14.3582C15.9583 14.0702 16.1019 14.0702 16.3891 14.2142L18.6867 15.3662C18.974 15.5102 19.2612 15.6542 19.4048 15.7982C19.5484 16.2302 19.5484 16.8062 19.2612 17.2382Z" fill="white"/>
</g>
</g>
</g>
<defs>
<clipPath id="clip0_71_558">
<rect width="24" height="24" fill="white"/>
</clipPath>
<clipPath id="clip1_71_558">
<rect width="24" height="24" fill="white"/>
</clipPath>
</defs>
</svg>
